<svg width="12" height="12" viewBox="0 0 12 12" fill="none" xmlns="http://www.w3.org/2000/svg">
<g clip-path="url(#clip0_21_52)">
<path d="M3.23412 12C3.44647 12 3.60436 11.8914 3.86026 11.6523L5.82578 9.85969H9.50637C11.1289 9.85969 12 8.96879 12 7.37712V3.21594C12 1.62427 11.1289 0.727936 9.50637 0.727936H2.49365C0.871145 0.727936 0 1.61884 0 3.21594V7.37712C0 8.97423 0.871145 9.85969 2.49365 9.85969H2.74955V11.4405C2.74955 11.7773 2.92378 12 3.23412 12ZM3.1089 3.74832C2.92922 3.74832 2.78222 3.60708 2.78222 3.42237C2.78222 3.24854 2.92922 3.10187 3.1089 3.10187H8.82579C9.00546 3.10187 9.14702 3.24854 9.14702 3.42237C9.14702 3.60708 9.00546 3.74832 8.82579 3.74832H3.1089ZM3.1089 5.57359C2.92922 5.57359 2.78222 5.42691 2.78222 5.2422C2.78222 5.06837 2.92922 4.9217 3.1089 4.9217H8.82579C9.00546 4.9217 9.14702 5.06837 9.14702 5.2422C9.14702 5.42691 9.00546 5.57359 8.82579 5.57359H3.1089ZM3.1089 7.39342C2.92922 7.39342 2.78222 7.25217 2.78222 7.07291C2.78222 6.88821 2.92922 6.74153 3.1089 6.74153H6.8276C7.00727 6.74153 7.14883 6.88821 7.14883 7.07291C7.14883 7.25217 7.00727 7.39342 6.8276 7.39342H3.1089Z" fill="white" fill-opacity="0.45"/>
</g>
<defs>
<clipPath id="clip0_21_52">
<rect width="12" height="12" fill="white"/>
</clipPath>
</defs>
</svg>
