<svg width="12" height="12" viewBox="0 0 12 12" fill="none" xmlns="http://www.w3.org/2000/svg">
<path d="M6 12C9.28235 12 12 9.28369 12 6.00295C12 2.72808 9.27647 0.00588989 5.99412 0.00588989C2.71765 0.00588989 0 2.72808 0 6.00295C0 9.28369 2.72353 12 6 12ZM4.20588 9.21902C4.00589 9.21902 3.87647 9.07203 3.87647 8.83097V3.72171C3.87647 3.13377 4.18235 2.82216 4.77059 2.82216H7.22941C7.81765 2.82216 8.12352 3.13377 8.12352 3.72171V8.83097C8.12352 9.07203 7.99411 9.21902 7.79412 9.21902C7.63529 9.21902 7.54706 9.12494 7.27059 8.8545L6.02941 7.63744C6.01176 7.6198 5.98823 7.6198 5.97058 7.63744L4.73529 8.8545C4.45294 9.12494 4.36471 9.21902 4.20588 9.21902Z" fill="white" fill-opacity="0.5"/>
</svg>
